<svg xmlns="http://www.w3.org/2000/svg" width="163.7836456298828" height="243.1664276123047" viewBox="-1.2817211151123047 -20.574569702148438 163.7836456298828 243.1664276123047"><title>Neo4j Graph Visualization</title><desc>Created using Neo4j (http://www.neo4j.com/)</desc><g class="layer relationships"><g class="relationship" transform="translate(133.50192473816708 8.425431097028447) rotate(521.9455462280904)"><path class="outline" fill="#A5ABB6" stroke="none" d="M 21.40063509461097,12.933012701892217 L 21.90063509461097,12.06698729810778 A 59.939182715972564 59.939182715972564 0 0 0 23.470358310903553,12.942155669393713 L 22.996546909832755,13.822782012524172 A 60.939182715972564 60.939182715972564 0 0 1 21.40063509461097,12.933012701892217 Z M 77.38295158404844,15.499661514098399 L 76.96429278367756,14.59151790823421 A 59.939182715972564 59.939182715972564 0 0 0 78.5849506490326,13.814717588119763 L 77.24785913463748,11.129166195550159 L 85.07408581742754,11.142429286626067 L 80.36773933489278,17.39545277821257 L 79.03064782049765,14.709901385642965 A 60.939182715972564 60.939182715972564 0 0 1 77.38295158404844,15.499661514098399"/><text text-anchor="middle" pointer-events="none" font-size="8px" fill="#000000" x="50.00760862682294" y="23.568607156258082" transform="rotate(180 50.00760862682294 20.568607156258082)" font-family="sans-serif">PublicTrans…</text></g><g class="relationship" transform="translate(31.339005570309098 41.72755497837062) rotate(451.9450860359814)"><path class="outline" fill="#A5ABB6" stroke="none" d="M 25 0.5 L 40.16957065752025 0.5 L 40.16957065752025 -0.5 L 25 -0.5 Z M 59.50550815752025 0.5 L 74.6750788150405 0.5 L 74.6750788150405 3.5 L 81.6750788150405 0 L 74.6750788150405 -3.5 L 74.6750788150405 -0.5 L 59.50550815752025 -0.5 Z"/><text text-anchor="middle" pointer-events="none" font-size="8px" fill="#000000" x="49.83753940752025" y="3" transform="rotate(180 49.83753940752025 0)" font-family="sans-serif">trek</text></g><g class="relationship" transform="translate(27.71827896109884 148.34116939518165) rotate(384.9313484422297)"><path class="outline" fill="#A5ABB6" stroke="none" d="M 25 0.5 L 40.50610456911368 0.5 L 40.50610456911368 -0.5 L 25 -0.5 Z M 59.84204206911368 0.5 L 75.34814663822736 0.5 L 75.34814663822736 3.5 L 82.34814663822736 0 L 75.34814663822736 -3.5 L 75.34814663822736 -0.5 L 59.84204206911368 -0.5 Z"/><text text-anchor="middle" pointer-events="none" font-size="8px" fill="#000000" x="50.17407331911368" y="3" font-family="sans-serif">trek</text></g><g class="relationship" transform="translate(133.50192473816708 8.425431097028447) rotate(521.9455462280904)"><path class="outline" fill="#A5ABB6" stroke="none" d="M 25 0.5 L 40.558871627753796 0.5 L 40.558871627753796 -0.5 L 25 -0.5 Z M 59.894809127753796 0.5 L 75.45368075550759 0.5 L 75.45368075550759 3.5 L 82.45368075550759 0 L 75.45368075550759 -3.5 L 75.45368075550759 -0.5 L 59.894809127753796 -0.5 Z"/><text text-anchor="middle" pointer-events="none" font-size="8px" fill="#000000" x="50.226840377753796" y="3" transform="rotate(180 50.226840377753796 0)" font-family="sans-serif">trek</text></g><g class="relationship" transform="translate(133.50192473816708 8.425431097028447) rotate(521.9455462280904)"><path class="outline" fill="#A5ABB6" stroke="none" d="M 21.40063509461097,-12.933012701892217 L 21.90063509461097,-12.06698729810778 A 59.939182715972564 59.939182715972564 0 0 1 39.20412710897086,-18.743758198494312 L 38.99281125897594,-19.721176027030772 A 60.939182715972564 60.939182715972564 0 0 0 21.40063509461097,-12.933012701892217 Z M 61.05369087890641,-20.40137242984423 L 60.90299203430405,-19.41279271215045 A 59.939182715972564 59.939182715972564 0 0 1 78.5849506490326,-13.814717588119763 L 77.24785913463748,-11.129166195550159 L 85.07408581742754,-11.142429286626067 L 80.36773933489278,-17.39545277821257 L 79.03064782049765,-14.709901385642965 A 60.939182715972564 60.939182715972564 0 0 0 61.05369087890641,-20.40137242984423"/><text text-anchor="middle" pointer-events="none" font-size="8px" fill="#000000" x="50.00760862682293" y="-17.568607156258082" transform="rotate(180 50.00760862682293 -20.568607156258082)" font-family="sans-serif">road</text></g></g><g class="layer nodes"><g class="node" transform="translate(133.50192473816708,8.425431097028447)"><circle class="outline" cx="0" cy="0" r="25" fill="#8DCC93" stroke="#5db665" stroke-width="2px"/><text text-anchor="middle" pointer-events="none" font-family="sans-serif" dy="1.5625" font-size="25" fill="#2A2C34"/><text text-anchor="middle" pointer-events="none" x="0" y="5" font-size="10px" fill="#2A2C34" font-family="sans-serif"> Darjeeling</text></g><g class="node" transform="translate(125.06302922089283,193.5918509759126)"><circle class="outline" cx="0" cy="0" r="25" fill="#D9C8AE" stroke="#c0a378" stroke-width="2px"/><text text-anchor="middle" pointer-events="none" font-family="sans-serif" dy="1.5625" font-size="25" fill="#2A2C34"/><text text-anchor="middle" pointer-events="none" x="0" y="5" font-size="10px" fill="#2A2C34" font-family="sans-serif"> Sandak…</text></g><g class="node" transform="translate(31.339005570309098,41.72755497837062)"><circle class="outline" cx="0" cy="0" r="25" fill="#8DCC93" stroke="#5db665" stroke-width="2px"/><text text-anchor="middle" pointer-events="none" font-family="sans-serif" dy="1.5625" font-size="25" fill="#2A2C34"/><text text-anchor="middle" pointer-events="none" x="0" y="5" font-size="10px" fill="#2A2C34" font-family="sans-serif"> Rimbik</text></g><g class="node" transform="translate(27.71827896109884,148.34116939518165)"><circle class="outline" cx="0" cy="0" r="25" fill="#ECB5C9" stroke="#da7298" stroke-width="2px"/><text text-anchor="middle" pointer-events="none" font-family="sans-serif" dy="1.5625" font-size="25" fill="#2A2C34"/><text text-anchor="middle" pointer-events="none" x="0" y="5" font-size="10px" fill="#2A2C34" font-family="sans-serif"> BhikeBh…</text></g></g></svg>